<svg width="602" height="419" viewBox="0 0 602 419" fill="none" xmlns="http://www.w3.org/2000/svg">
<path d="M104.51 358.197C102.075 338.567 89.9401 319.225 71.2669 312.837C78.6311 333.042 78.6295 355.207 71.2624 375.411C68.393 383.193 64.3934 391.548 67.0925 399.391C68.7717 404.271 72.8799 408.005 77.472 410.339C82.0644 412.674 87.1609 413.786 92.1937 414.877L93.1842 415.698C101.174 397.611 106.944 377.827 104.51 358.197Z" fill="#F0F0F0"/>
<path d="M71.0814 313.208C81.9557 325.424 88.7145 340.764 90.3976 357.051C90.822 360.55 90.6936 364.095 90.017 367.555C89.2493 370.903 87.6012 373.985 85.2439 376.479C83.0926 378.849 80.6183 381.023 79.079 383.876C78.3127 385.348 77.8654 386.966 77.7665 388.623C77.6676 390.281 77.9192 391.94 78.5049 393.493C79.8639 397.401 82.5425 400.587 85.2699 403.611C88.2982 406.968 91.4967 410.407 92.7839 414.858C92.9399 415.397 93.7654 415.123 93.6097 414.585C91.3701 406.841 83.8723 402.442 80.2966 395.467C78.6282 392.213 77.9278 388.434 79.492 384.999C80.8598 381.995 83.4094 379.75 85.6083 377.37C87.9435 374.971 89.6572 372.034 90.5996 368.818C91.4497 365.404 91.7142 361.87 91.3817 358.368C90.7585 350.47 88.9006 342.719 85.8761 335.4C82.4704 327.027 77.6613 319.301 71.6568 312.554C71.285 312.136 70.712 312.793 71.0814 313.208Z" fill="white"/>
<path d="M90.1636 351.775C92.8507 351.12 95.2184 349.53 96.8439 347.287C98.4694 345.045 99.2468 342.296 99.0373 339.531C98.993 338.972 98.1242 339.015 98.1686 339.575C98.3684 342.149 97.644 344.709 96.1261 346.794C94.6082 348.88 92.3967 350.352 89.8909 350.947C89.3465 351.076 89.6223 351.904 90.1636 351.775Z" fill="white"/>
<path d="M86.4925 375.421C81.6393 372.516 78.0566 367.884 76.4588 362.447C76.3009 361.909 75.4754 362.183 75.6331 362.721C77.3063 368.375 81.0444 373.188 86.1015 376.2C86.5837 376.487 86.9721 375.707 86.4925 375.421Z" fill="white"/>
<path d="M81.6636 327.853C80.6765 328.324 79.5884 328.541 78.4969 328.485C77.4054 328.43 76.3448 328.103 75.4102 327.535C74.9319 327.242 74.5439 328.023 75.0192 328.314C76.0546 328.937 77.2263 329.296 78.4321 329.36C79.6379 329.424 80.841 329.191 81.9363 328.681C82.0435 328.642 82.1318 328.563 82.1832 328.461C82.2346 328.358 82.2451 328.24 82.2128 328.131C82.1762 328.021 82.0979 327.931 81.9951 327.879C81.8923 327.827 81.7732 327.818 81.6636 327.853Z" fill="white"/>
<path d="M14.3483 347.899C14.6418 348.09 14.9353 348.282 15.2291 348.48C19.1617 351.073 22.8778 353.982 26.3405 357.178C26.6122 357.421 26.8838 357.671 27.1479 357.921C35.4086 365.71 42.1552 374.969 47.0446 385.227C48.9864 389.311 50.6156 393.537 51.9179 397.869C53.7162 403.851 55.1912 410.481 58.7508 415.374C59.1165 415.889 59.5136 416.38 59.9399 416.846H92.1079C92.181 416.809 92.2545 416.779 92.328 416.743L93.6123 416.802C93.5607 416.573 93.5023 416.338 93.4507 416.11C93.4213 415.977 93.3848 415.845 93.3554 415.713C93.3335 415.624 93.3113 415.536 93.2966 415.455C93.2894 415.426 93.2819 415.396 93.2747 415.374C93.26 415.293 93.2378 415.22 93.2231 415.146C92.9002 413.829 92.5676 412.512 92.2251 411.195C92.2251 411.187 92.2251 411.187 92.2179 411.18C89.5829 401.151 86.0896 391.254 81.209 382.203C81.0621 381.931 80.9155 381.651 80.7539 381.379C78.5314 377.312 75.9811 373.433 73.1283 369.782C71.5598 367.788 69.8917 365.875 68.1303 364.05C63.5699 359.344 58.2996 355.386 52.5125 352.321C40.975 346.214 27.6177 343.874 15.2875 347.605C14.9722 347.7 14.6636 347.796 14.3483 347.899Z" fill="#F0F0F0"/>
<path d="M14.4207 348.308C30.4391 351.498 45.0479 359.667 56.172 371.655C58.6125 374.193 60.6387 377.101 62.176 380.271C63.5739 383.408 64.1085 386.864 63.7241 390.278C63.4295 393.469 62.7595 396.698 63.2436 399.905C63.5158 401.543 64.1301 403.105 65.0465 404.488C65.9628 405.871 67.1605 407.044 68.5608 407.931C71.9928 410.231 76.0443 411.157 80.0378 411.925C84.4719 412.778 89.0909 413.593 92.7915 416.37C93.2399 416.706 93.7344 415.989 93.2867 415.653C86.8482 410.822 78.2202 411.836 71.1767 408.425C67.8901 406.834 65.062 404.24 64.2478 400.553C63.5358 397.328 64.2238 393.997 64.55 390.769C64.9737 387.444 64.5788 384.065 63.3999 380.928C62.0286 377.689 60.1175 374.708 57.7485 372.112C52.5081 366.182 46.3704 361.115 39.5602 357.097C31.813 352.468 23.3332 349.201 14.4874 347.439C13.9399 347.33 13.8767 348.2 14.4207 348.308Z" fill="white"/>
<path d="M52.8165 367.583C54.5692 365.439 55.5046 362.74 55.4557 359.968C55.4068 357.196 54.3767 354.532 52.5493 352.451C52.1782 352.032 51.5102 352.59 51.8818 353.01C53.587 354.945 54.5463 357.427 54.5866 360.008C54.6269 362.589 53.7456 365.1 52.1016 367.087C51.7449 367.519 52.4618 368.013 52.8165 367.583Z" fill="white"/>
<path d="M64.0857 388.68C58.466 389.29 52.8234 387.753 48.2832 384.377C47.8337 384.043 47.3391 384.76 47.7881 385.094C52.5193 388.598 58.3944 390.185 64.2411 389.538C64.7983 389.476 64.6399 388.618 64.0857 388.68Z" fill="white"/>
<path d="M31.6648 353.614C31.1591 354.585 30.4206 355.416 29.5158 356.03C28.6109 356.645 27.5681 357.024 26.4808 357.135C25.923 357.19 26.082 358.047 26.6361 357.993C27.8368 357.865 28.9881 357.444 29.9893 356.768C30.9905 356.091 31.8112 355.179 32.3797 354.111C32.4417 354.014 32.4648 353.898 32.4444 353.785C32.424 353.673 32.3616 353.572 32.2698 353.504C32.1749 353.439 32.058 353.414 31.9448 353.434C31.8315 353.455 31.7309 353.52 31.6648 353.614Z" fill="white"/>
<path d="M208.406 259.091C207.74 258.401 207.234 257.574 206.921 256.667C206.609 255.76 206.499 254.795 206.599 253.841C206.699 252.887 207.007 251.966 207.5 251.144C207.993 250.322 208.66 249.618 209.454 249.082L203.507 226.535L214.965 230.398L218.855 251.218C219.665 252.614 219.935 254.26 219.615 255.843C219.295 257.427 218.407 258.837 217.118 259.808C215.83 260.778 214.232 261.241 212.626 261.109C211.02 260.977 209.519 260.259 208.406 259.091Z" fill="#9E616A"/>
<path d="M155.395 410.541L163.376 410.541L167.173 379.678L155.394 379.678L155.395 410.541Z" fill="#9E616A"/>
<path d="M153.36 418.297L179.093 418.296V417.97C179.093 415.307 178.038 412.753 176.159 410.869C174.281 408.986 171.733 407.928 169.077 407.928L153.359 407.929L153.36 418.297Z" fill="#2F2E41"/>
<path d="M193.152 410.541L201.133 410.541L204.929 379.678L193.15 379.678L193.152 410.541Z" fill="#9E616A"/>
<path d="M191.116 418.297L216.85 418.296V417.97C216.85 415.307 215.794 412.753 213.916 410.869C212.038 408.986 209.49 407.928 206.834 407.928L191.116 407.929L191.116 418.297Z" fill="#2F2E41"/>
<path d="M197.591 224.586L200.654 225.434C200.654 225.434 208.657 277.451 209.308 304.863C209.959 332.275 207.355 401.456 207.355 401.456H190.43L176.759 283.978L170.25 401.456H152.022C152.022 401.456 139.003 247.429 144.862 235.028C150.72 222.628 197.591 224.586 197.591 224.586Z" fill="#2F2E41"/>
<path d="M173.174 132.801C164.728 132.801 157.881 125.936 157.881 117.468C157.881 109 164.728 102.135 173.174 102.135C181.62 102.135 188.467 109 188.467 117.468C188.467 125.936 181.62 132.801 173.174 132.801Z" fill="#9E616A"/>
<path d="M134.446 152.793L158.183 137.241L182.781 138.212L206.704 151.488L197.59 202.396L201.496 231.765C201.496 231.765 166.344 227.849 158.532 233.723C153.97 237.208 148.589 239.456 142.909 240.25L144.21 189.995L134.446 152.793Z" fill="#86CCC2"/>
<path d="M202.147 150.835L204.607 150.324L206.704 151.488C206.704 151.488 212.563 159.32 212.563 166.499C212.563 173.678 219.724 242.86 219.724 242.86L206.704 248.734L196.289 194.564L202.147 150.835Z" fill="#86CCC2"/>
<path d="M159.781 106.226C159.781 106.226 155.781 98.5596 164.581 97.8627C164.581 97.8627 172.083 91.0398 179.73 96.6154C179.73 96.6154 183.901 96.6153 186.181 101.347C186.181 101.347 189.462 100.1 190.183 103.438C190.183 103.438 192.583 110.408 190.183 116.68C187.782 122.953 186.985 123.65 186.985 123.65C186.985 123.65 190.929 110.499 181.329 109.802C171.728 109.105 160.984 103.09 160.184 110.756C159.384 118.423 158.18 120.312 158.18 120.312C158.18 120.312 150.581 109.362 159.781 106.226Z" fill="#2F2E41"/>
<path d="M357.405 196.427H546.839V54.1472H357.405V196.427Z" fill="white"/>
<path d="M454.214 124.553H525V71H454.214V124.553Z" fill="white"/>
<path d="M454.214 124.553H525V71H454.214V124.553ZM523.698 123.248H455.516V72.3053H523.698V123.248Z" fill="#E6E6E6"/>
<path d="M540.551 14.5857H592.664V18.0689H540.551V14.5857Z" fill="#E4E4E4"/>
<path d="M540.551 25.0347H592.664V28.5179H540.551V25.0347Z" fill="#E4E4E4"/>
<path d="M540.551 35.4845H592.664V38.9677H540.551V35.4845Z" fill="#E4E4E4"/>
<path d="M60.5583 418.39H131.345V364.836H60.5583V418.39Z" fill="white"/>
<path d="M60.5583 418.39H131.345V364.836H60.5583V418.39ZM130.043 417.084H61.8603V366.142H130.043V417.084Z" fill="#E6E6E6"/>
<path d="M69.8954 379.422H122.009V382.905H69.8954V379.422Z" fill="#E4E4E4"/>
<path d="M69.8954 389.871H122.009V393.354H69.8954V389.871Z" fill="#E4E4E4"/>
<path d="M69.8954 400.321H122.009V403.804H69.8954V400.321Z" fill="#E4E4E4"/>
<path d="M103.547 322.297L156.42 275.11L120.905 235.109L68.0317 282.296L103.547 322.297Z" fill="white"/>
<path d="M103.547 322.297L156.42 275.11L120.905 235.109L68.0317 282.296L103.547 322.297ZM154.582 275.003L103.654 320.454L69.8698 282.403L120.798 236.952L154.582 275.003Z" fill="#E6E6E6"/>
<path d="M123.604 252.227L125.914 254.829L86.9888 289.568L84.6788 286.966L123.604 252.227Z" fill="#E4E4E4"/>
<path d="M130.534 260.032L132.844 262.634L93.9185 297.373L91.6085 294.771L130.534 260.032Z" fill="#E4E4E4"/>
<path d="M137.464 267.837L139.774 270.439L100.848 305.178L98.5384 302.577L137.464 267.837Z" fill="#E4E4E4"/>
<path d="M414.032 156.743H493V97H414.032V156.743Z" fill="white"/>
<path d="M414.032 156.743H493V97H414.032V156.743ZM491.548 155.287H415.485V98.4562H491.548V155.287Z" fill="#E6E6E6"/>
<path d="M424.864 113H483V116.886H424.864V113Z" fill="#86CCC2"/>
<path d="M424.864 125H483V128.886H424.864V125Z" fill="#86CCC2"/>
<path d="M424.864 136H483V139.886H424.864V136Z" fill="#86CCC2"/>
<path d="M286.201 241.28H406.707V150.112H286.201V241.28Z" fill="white"/>
<path d="M286.201 241.28H406.707V150.112H286.201V241.28ZM404.491 239.058H288.417V152.334H404.491V239.058Z" fill="#E6E6E6"/>
<path d="M302.096 174.942H390.813V180.872H302.096V174.942Z" fill="#86CCC2"/>
<path d="M302.096 192.73H390.813V198.66H302.096V192.73Z" fill="#86CCC2"/>
<path d="M302.096 210.52H390.813V216.45H302.096V210.52Z" fill="#86CCC2"/>
<path d="M142.538 258.599C143.005 257.761 143.282 256.831 143.351 255.874C143.42 254.917 143.278 253.956 142.937 253.06C142.595 252.164 142.062 251.353 141.375 250.686C140.687 250.019 139.862 249.511 138.957 249.198L138.918 225.875L128.837 232.564L130.42 253.686C129.996 255.245 130.158 256.905 130.873 258.352C131.589 259.8 132.809 260.934 134.303 261.539C135.797 262.145 137.46 262.18 138.978 261.638C140.496 261.096 141.763 260.015 142.538 258.599Z" fill="#9E616A"/>
<path d="M141.607 155.404L137.103 151.052L133.795 153.446C133.795 153.446 130.54 157.362 127.936 169.11C125.332 180.858 127.936 245.471 127.936 245.471L142.257 243.513L140.305 209.575L146.163 180.858L141.607 155.404Z" fill="#86CCC2"/>
</svg>
