<svg width="369" height="647" viewBox="0 0 369 647" fill="none" xmlns="http://www.w3.org/2000/svg">
<g clip-path="url(#clip0_30_320)">
<path d="M74.4929 69.1934L63.412 20.0056L59.7977 3.98162C59.4979 2.65973 58.6853 1.51112 57.5389 0.788452C56.3925 0.0657829 55.006 -0.17176 53.6845 0.128087L48.2259 1.36301L4.45246 11.2423C3.79898 11.3895 3.1809 11.6642 2.63357 12.0505C2.08624 12.4369 1.62038 12.9273 1.26262 13.4938C0.904858 14.0603 0.662219 14.6918 0.548542 15.3521C0.434864 16.0125 0.452391 16.6888 0.600119 17.3424C-1.74987 39.2285 2.89073 59.4183 12.9602 78.3139C13.7039 79.7273 14.4923 81.1408 15.3103 82.5542C15.5268 83.5316 16.029 84.4223 16.7531 85.1133C17.3626 85.6957 18.1065 86.1186 18.9186 86.3445C19.7307 86.5703 20.586 86.592 21.4085 86.4077L27.1499 85.1133L30.6898 84.3099L70.6407 75.2936C71.9601 74.9954 73.107 74.1852 73.8294 73.0413C74.5518 71.8974 74.7904 70.5133 74.4929 69.1934Z" fill="#E6E6E6"/>
<path d="M69.9118 66.4556L59.3514 19.6632L56.823 8.43003C56.5443 7.19328 55.7862 6.11778 54.7152 5.43986C53.6443 4.76193 52.348 4.53704 51.1114 4.81459L47.7499 5.57341L8.79558 14.3665C7.55922 14.6452 6.48405 15.4036 5.80634 16.4749C5.12863 17.5462 4.9038 18.8428 5.18126 20.0798C5.52333 37.1155 7.3082 52.5741 14.6409 62.007C15.4755 65.6761 17.2667 69.0586 19.8322 71.8104C22.3978 74.5623 25.6461 76.5854 29.247 77.6739C29.3362 77.7037 29.4106 77.7335 29.4998 77.7631C29.5593 77.778 29.6337 77.8078 29.6932 77.8227C33.0824 78.7766 36.6562 78.8687 40.09 78.0905L66.2975 72.1689C67.5339 71.8901 68.609 71.1318 69.2867 70.0605C69.9644 68.9892 70.1893 67.6926 69.9118 66.4556Z" fill="white"/>
<path d="M31.1025 29.9686C31.9644 28.9737 33.125 28.2846 34.4109 28.0041C35.6968 27.7236 37.0389 27.8669 38.2366 28.4126C40.836 29.7113 41.8446 32.4747 41.4293 35.2223C40.9654 38.2917 39.3625 41.086 39.217 44.2287C39.0896 46.9791 40.1145 49.869 42.551 51.3497C44.2981 52.4115 46.0964 49.783 44.3409 48.7161C41.4521 46.9605 42.4229 43.1025 43.2608 40.471C44.3071 37.185 45.3974 33.8352 44.103 30.4495C43.53 29.0319 42.6109 27.7806 41.4296 26.8102C40.2483 25.8398 38.8426 25.1811 37.3411 24.8945C35.8396 24.6079 34.2903 24.7025 32.8347 25.1696C31.3792 25.6367 30.064 26.4614 29.0094 27.5683C27.631 29.0552 29.7067 31.4743 31.1025 29.9686Z" fill="#6C63FF"/>
<path d="M45.125 60.5276C46.8833 60.5276 48.3087 59.1018 48.3087 57.343C48.3087 55.5841 46.8833 54.1583 45.125 54.1583C43.3668 54.1583 41.9414 55.5841 41.9414 57.343C41.9414 59.1018 43.3668 60.5276 45.125 60.5276Z" fill="#6C63FF"/>
<path d="M245.498 615.577L195.096 615.276L178.676 615.18C175.854 615.165 173.541 616.238 173.51 617.577L173.444 620.232L172.891 641.522C172.849 642.852 175.107 643.957 177.928 643.972C198.487 647.335 219.428 647.675 240.085 644.98C241.632 644.792 243.188 644.586 244.754 644.362C245.709 644.376 246.661 644.247 247.577 643.978C248.971 643.548 249.892 642.81 249.916 641.972L249.99 639.179L250.031 637.457L250.536 618.026C250.567 616.688 248.305 615.59 245.498 615.577Z" fill="#E6E6E6"/>
<path d="M241.773 617.39L193.821 617.112L182.311 617.042C179.674 617.027 177.503 618.029 177.47 619.28L177.428 620.915L176.937 639.862C176.904 641.113 179.016 642.143 181.654 642.159C198.298 643.876 213.744 644.755 224.619 642.409C232.535 642.449 239.517 640.424 243.243 637.393C243.293 637.355 243.339 637.324 243.389 637.286C243.417 637.26 243.463 637.229 243.491 637.203C244.25 636.644 244.881 635.929 245.342 635.107C245.803 634.284 246.083 633.373 246.165 632.434L246.489 619.687C246.523 618.435 244.41 617.405 241.773 617.39Z" fill="white"/>
<path d="M197.286 631.284C195.816 630.24 195.662 628.82 197.428 627.82C199.295 626.764 202.216 626.602 204.791 627.097C207.668 627.649 210.013 628.696 213.035 629.109C215.68 629.471 218.728 629.316 220.734 628.354C222.172 627.665 220.033 626.546 218.588 627.238C216.211 628.378 212.684 627.505 210.32 626.829C207.368 625.984 204.363 625.112 200.771 625.337C194.234 625.746 190.824 629.399 194.466 631.986C195.592 632.786 198.426 632.094 197.286 631.284Z" fill="#E6E6E6"/>
<path d="M227.159 629.337C228.917 629.337 230.342 628.66 230.342 627.826C230.342 626.992 228.917 626.316 227.159 626.316C225.401 626.316 223.975 626.992 223.975 627.826C223.975 628.66 225.401 629.337 227.159 629.337Z" fill="#E6E6E6"/>
<path d="M2.85502 246.461C-1.52428 228.062 -0.793948 209.941 6.70501 192.186C6.78417 191.088 7.29567 190.065 8.1273 189.344C8.95894 188.622 10.0428 188.26 11.1411 188.337L52.118 191.245C53.2161 191.324 54.238 191.836 54.9594 192.668C55.6808 193.5 56.0429 194.584 55.9662 195.682L52.1163 249.957C52.0371 251.056 51.5256 252.078 50.694 252.8C49.8623 253.521 48.7785 253.884 47.6802 253.807L6.70327 250.898C5.60517 250.819 4.5833 250.308 3.86187 249.476C3.14043 248.644 2.77834 247.56 2.85502 246.461Z" fill="#F2F2F2"/>
<path d="M7.16108 230.291C3.65637 221.224 5.89724 208.755 9.6362 195.398C9.71032 194.369 10.1893 193.412 10.9682 192.736C11.7471 192.06 12.7621 191.721 13.7907 191.793L49.007 194.292C50.0354 194.366 50.9924 194.846 51.6681 195.625C52.3438 196.404 52.6829 197.419 52.6111 198.448L49.1852 246.746C49.111 247.774 48.6319 248.732 47.8531 249.407C47.0742 250.083 46.0591 250.422 45.0305 250.351L23.2148 248.802C18.6339 248.472 14.371 246.337 11.3614 242.867C8.35179 239.397 6.84121 234.874 7.16108 230.291Z" fill="white"/>
<path d="M31.5422 232.657C30.4665 232.472 29.3909 232.287 28.3152 232.102C28.8108 230.932 29.0968 229.684 29.1602 228.415C29.6693 221.622 29.7206 214.765 29.9923 207.958C29.9852 207.709 29.9063 207.467 29.765 207.262C29.6238 207.057 29.4263 206.897 29.1963 206.802C28.9663 206.707 28.7136 206.68 28.4688 206.725C28.2239 206.77 27.9974 206.885 27.8164 207.056C25.1149 209.295 22.4134 211.533 19.7118 213.771C18.4473 214.819 20.2594 216.614 21.5144 215.574C23.4534 213.968 25.3924 212.361 27.3315 210.755C27.1535 215.215 26.9755 219.675 26.7975 224.135C26.7122 226.275 26.9723 228.875 26.0962 230.887C25.9764 231.158 25.82 231.412 25.6314 231.641C24.4405 231.436 23.2496 231.232 22.0586 231.027C21.2021 230.88 20.1137 231.595 20.4907 232.595C21.3104 234.771 23.7269 235.458 25.7989 234.62C25.9815 234.537 26.1583 234.443 26.3278 234.336L30.8646 235.116C32.4691 235.392 33.1584 232.935 31.5422 232.657Z" fill="#F2F2F2"/>
<path d="M151.557 251.561C147.178 233.162 147.908 215.04 155.407 197.286C155.486 196.187 155.998 195.165 156.829 194.444C157.661 193.722 158.745 193.36 159.843 193.436L200.82 196.345C201.918 196.424 202.94 196.936 203.661 197.768C204.383 198.6 204.745 199.684 204.668 200.782L200.818 255.057C200.739 256.156 200.228 257.178 199.396 257.9C198.564 258.621 197.481 258.984 196.382 258.907L155.405 255.998C154.307 255.919 153.285 255.408 152.564 254.576C151.842 253.744 151.48 252.66 151.557 251.561Z" fill="#F2F2F2"/>
<path d="M155.863 235.391C152.358 226.324 154.599 213.855 158.338 200.498C158.412 199.469 158.891 198.512 159.67 197.836C160.449 197.16 161.464 196.821 162.493 196.893L197.709 199.392C198.737 199.466 199.694 199.946 200.37 200.725C201.046 201.504 201.385 202.519 201.313 203.548L197.887 251.845C197.813 252.874 197.334 253.832 196.555 254.507C195.776 255.183 194.761 255.522 193.733 255.451L171.917 253.902C167.336 253.572 163.073 251.437 160.063 247.967C157.054 244.497 155.543 239.974 155.863 235.391Z" fill="white"/>
<path d="M178.853 226.182C179.321 225.963 179.764 225.694 180.174 225.38C181.266 224.48 182.073 223.281 182.498 221.931C182.922 220.58 182.946 219.135 182.566 217.772C180.913 211.699 173.652 211.662 168.639 212.393C167.022 212.629 167.709 215.086 169.317 214.852C172.695 214.359 177.999 213.961 179.815 217.653C180.229 218.52 180.376 219.491 180.238 220.442C180.1 221.393 179.682 222.281 179.038 222.995C178.268 223.767 177.255 224.249 176.169 224.359C175.118 223.902 173.977 223.689 172.832 223.736C171.651 223.792 170.992 225.51 172.188 226.112C173.247 226.639 174.413 226.915 175.596 226.916C176.576 227.389 177.395 228.141 177.949 229.079C178.504 230.016 178.769 231.096 178.711 232.184C178.598 232.928 178.339 233.643 177.949 234.287C177.559 234.932 177.046 235.492 176.439 235.937C175.831 236.382 175.142 236.703 174.41 236.88C173.679 237.058 172.919 237.089 172.175 236.972C170.574 236.649 169.888 239.107 171.498 239.431C172.596 239.638 173.726 239.62 174.817 239.379C175.909 239.138 176.941 238.679 177.85 238.028C178.76 237.378 179.528 236.55 180.109 235.594C180.69 234.639 181.072 233.576 181.232 232.469C181.333 231.31 181.171 230.142 180.76 229.054C180.348 227.965 179.696 226.984 178.853 226.182Z" fill="#F2F2F2"/>
<path d="M231.215 599.621L216.797 599.62L209.939 543.994L231.217 543.995L231.215 599.621Z" fill="#FFB6B6"/>
<path d="M231.722 614.666L187.388 614.664V614.103C187.388 609.526 189.206 605.135 192.442 601.898C195.678 598.661 200.067 596.842 204.644 596.842H204.645L212.743 590.697L227.853 596.843L231.723 596.843L231.722 614.666Z" fill="#2F2E41"/>
<path d="M297.493 630.221L283.076 630.22L276.218 574.593L297.496 574.595L297.493 630.221Z" fill="#FFB6B6"/>
<path d="M298.001 645.266L253.666 645.264V644.703C253.666 640.125 255.485 635.735 258.721 632.498C261.957 629.261 266.346 627.442 270.922 627.442H270.923L279.022 621.296L294.131 627.443L298.001 627.443L298.001 645.266Z" fill="#2F2E41"/>
<path d="M120.113 185.368C121.104 186.476 122.323 187.354 123.686 187.944C125.049 188.534 126.524 188.82 128.009 188.783C129.494 188.746 130.953 188.388 132.285 187.731C133.617 187.075 134.791 186.137 135.726 184.982L184.884 198.98L192.097 186.33L133.59 170.133C131.53 168.704 129.017 168.081 126.529 168.381C124.04 168.682 121.748 169.885 120.087 171.763C118.426 173.641 117.511 176.063 117.516 178.571C117.521 181.078 118.445 183.497 120.113 185.368Z" fill="#FFB6B6"/>
<path d="M247.947 302.442L196.222 420.745L190.274 439.445L208.257 570.697L237.284 569.28L237.219 552.448C237.219 552.448 230.311 548.701 237.196 546.666C244.082 544.631 243.792 539.463 237.139 531.847C230.486 524.231 236.827 451.345 236.827 451.345C236.827 451.345 264.22 425.105 261.236 418.25C258.252 411.395 263.791 411.395 263.791 411.395C263.791 411.395 269.697 410.339 269.923 407.467C270.148 404.595 274.525 398.821 274.525 398.821L272.992 600.969H298.037C298.037 600.969 309.487 581.935 307.237 577.839C304.987 573.743 301.84 573.342 307.237 568.443C312.634 563.543 320.556 567.552 317.02 558.323C313.484 549.094 314.392 449.495 314.392 449.495C314.392 449.495 328.325 391.698 319.717 387.774C311.109 383.849 315.389 384.403 320.472 379.026C325.555 373.649 316.934 374.141 321.244 370.07C325.555 366 325.728 318.091 325.728 318.091L247.947 302.442Z" fill="#2F2E41"/>
<path d="M329.629 335.746C293.371 335.661 262.262 343.812 226.005 343.727C228.367 327.374 236.622 301.741 238.983 285.383C242.304 262.377 239.729 248.644 243.042 225.638C243.373 223.386 243.696 221.142 244.019 218.889C245.327 209.794 242.192 200.7 247.817 191.095C250.213 186.998 254.199 182.816 260.801 178.498C274.516 179.892 274.278 173.704 287.992 175.098L292.53 184.142C293.107 187.576 295.189 189.811 298.01 191.503C303.814 195.013 312.753 196.237 318.123 200.989C324.87 206.956 324.42 216.501 322.415 225.817C321.701 229.132 320.792 232.413 319.933 235.498C313.026 260.358 321.855 279.323 329.054 302.383C329.737 304.57 323.271 313.026 323.956 315.133C325.118 318.703 329.277 323.145 328.615 325.558C327.795 328.545 326.978 331.355 329.629 335.746Z" fill="#86CCC2"/>
<path d="M322.415 225.817L243.042 225.638L240.492 225.63L146.363 191.035L158.409 191.443L164 178.549L166.694 172.352L222.172 190.899L247.817 191.095L296.167 191.452C296.787 191.46 297.399 191.477 298.01 191.503C303.814 195.013 312.753 196.237 318.123 200.989C324.87 206.956 324.42 216.501 322.415 225.817Z" fill="#86CCC2"/>
<path d="M268.187 172.631C282.432 172.631 293.981 161.079 293.981 146.829C293.981 132.579 282.432 121.028 268.187 121.028C253.941 121.028 242.393 132.579 242.393 146.829C242.393 161.079 253.941 172.631 268.187 172.631Z" fill="#FFB6B6"/>
<path d="M264.521 169.007L266.622 175.727C271.281 173.426 284.5 170.234 288.379 166.777C292.258 163.32 295.259 158.549 295.442 153.355C295.537 150.672 294.888 147.966 295.333 145.32C295.837 142.329 297.682 139.736 298.527 136.823C299.317 133.772 299.02 130.541 297.686 127.686C296.352 124.83 294.065 122.529 291.218 121.179C286.942 119.299 282.053 119.827 277.405 119.372C272.757 118.918 267.572 116.815 266.263 112.33C265.774 110.653 265.83 108.676 264.333 107.578C263.58 107.075 262.668 106.869 261.772 106.998C260.877 107.128 260.061 107.584 259.481 108.28C259.412 108.358 259.346 108.437 259.282 108.517C255.348 113.455 247.932 113.821 244.052 108.841C243.798 108.516 243.554 108.183 243.32 107.842C242.505 108.606 241.849 109.524 241.39 110.543C240.931 111.562 240.679 112.662 240.648 113.779C240.617 114.896 240.808 116.008 241.209 117.051C241.61 118.094 242.214 119.047 242.986 119.855C241.52 119.856 240.097 119.363 238.946 118.455C237.795 117.547 236.984 116.277 236.643 114.851C234.862 117.311 233.036 119.876 232.463 122.857C231.891 125.839 232.953 129.366 235.687 130.686C237.082 131.237 238.58 131.482 240.078 131.405C233.026 139.749 237.257 139.509 251.539 131.623C258.623 131.757 255.825 138.343 255.917 145.43C259.251 145.11 262.686 144.797 265.838 146.201C267.307 146.82 268.545 147.884 269.377 149.243C271.461 152.823 269.394 156.545 267.561 159.801C265.995 162.585 264.51 165.937 265.81 168.855" fill="#2F2E41"/>
<path d="M217.576 385.307C218.876 384.588 220.004 383.596 220.883 382.398C221.762 381.2 222.37 379.826 222.665 378.37C222.961 376.914 222.936 375.411 222.594 373.965C222.252 372.52 221.6 371.166 220.683 369.997L245.29 325.186L234.572 315.33L205.735 368.767C203.883 370.457 202.716 372.768 202.453 375.262C202.191 377.755 202.852 380.259 204.312 382.298C205.771 384.336 207.928 385.769 210.372 386.323C212.817 386.878 215.38 386.516 217.576 385.307Z" fill="#FFB6B6"/>
<path d="M277.592 175.752L271.856 278.533L244.223 343.124L226.237 366.982L228.282 356.171L215.884 349.966L214.72 349.388L231.222 307.577L236.201 294.964L238.521 256.994L240.713 221.091C241.092 214.912 242.747 208.879 245.576 203.374C248.405 197.868 252.345 193.01 257.147 189.106L270.913 177.92L277.592 175.752Z" fill="#86CCC2"/>
<path d="M84.4288 175.912C80.0494 157.513 80.7798 139.391 88.2787 121.637C88.3579 120.538 88.8694 119.516 89.701 118.795C90.5327 118.073 91.6165 117.711 92.7148 117.787L133.692 120.696C134.79 120.775 135.812 121.287 136.533 122.119C137.255 122.951 137.617 124.035 137.54 125.133L133.69 179.408C133.611 180.507 133.099 181.529 132.268 182.251C131.436 182.972 130.352 183.334 129.254 183.258L88.277 180.349C87.1789 180.27 86.157 179.758 85.4356 178.927C84.7142 178.095 84.3521 177.01 84.4288 175.912Z" fill="#F2F2F2"/>
<path d="M88.7347 159.742C85.23 150.675 87.4709 138.206 91.2099 124.849C91.284 123.82 91.763 122.863 92.5419 122.187C93.3207 121.511 94.3358 121.172 95.3644 121.244L130.581 123.743C131.609 123.817 132.566 124.296 133.242 125.076C133.917 125.855 134.257 126.87 134.185 127.899L130.759 176.196C130.685 177.225 130.206 178.182 129.427 178.858C128.648 179.534 127.633 179.873 126.604 179.801L104.788 178.253C100.208 177.923 95.9447 175.788 92.9351 172.318C89.9255 168.847 88.4149 164.325 88.7347 159.742Z" fill="white"/>
<path d="M110.391 135.437C106.781 134.184 102.767 137.039 102.357 140.742C101.893 144.939 106.406 148.252 110.312 147.111C111.884 146.652 111.215 144.191 109.635 144.652C106.771 145.488 103.716 142.395 105.363 139.63C105.737 138.962 106.305 138.425 106.992 138.088C107.679 137.752 108.453 137.633 109.209 137.747C109.851 137.925 110.443 138.251 110.936 138.699C111.43 139.147 111.811 139.704 112.051 140.327C113.456 143.494 111.786 146.71 109.573 149.012C108.31 150.325 106.829 151.345 105.469 152.542C104.807 153.042 104.258 153.675 103.856 154.4C103.454 155.125 103.209 155.927 103.136 156.753C103.171 157.682 103.46 158.583 103.971 159.359C104.483 160.136 105.196 160.758 106.035 161.158C108.208 162.276 110.68 161.92 112.992 161.548C114.608 161.288 113.922 158.831 112.315 159.089C110.293 159.415 107.265 159.908 105.984 157.799C104.886 155.993 107.147 154.407 108.379 153.446C111.475 151.031 114.605 147.913 115.07 143.807C115.451 140.443 113.742 136.6 110.391 135.437Z" fill="#6C63FF"/>
<path d="M322.895 632.267C323.29 632.285 323.681 632.182 324.015 631.97C324.349 631.759 324.61 631.449 324.762 631.084C324.915 630.72 324.952 630.317 324.868 629.93C324.783 629.544 324.583 629.192 324.292 628.924L324.16 628.398C324.178 628.356 324.195 628.314 324.213 628.272C324.611 627.332 325.277 626.531 326.129 625.968C326.981 625.406 327.98 625.108 329.001 625.112C330.021 625.116 331.018 625.421 331.866 625.99C332.713 626.558 333.374 627.365 333.765 628.308C335.327 632.072 337.316 635.842 337.806 639.822C338.022 641.581 337.931 643.364 337.537 645.092C341.206 637.085 343.112 628.383 343.124 619.575C343.125 617.364 343.002 615.156 342.756 612.959C342.553 611.159 342.272 609.371 341.911 607.596C339.944 597.964 335.722 588.937 329.59 581.255C326.622 579.635 324.222 577.144 322.713 574.118C322.167 573.03 321.78 571.869 321.566 570.67C321.901 570.714 322.828 565.614 322.576 565.301C323.043 564.593 323.878 564.241 324.387 563.55C326.921 560.113 330.413 560.713 332.235 565.383C336.129 567.349 336.167 570.609 333.778 573.744C332.258 575.739 332.049 578.438 330.715 580.574C330.852 580.75 330.995 580.92 331.132 581.095C333.64 584.322 335.826 587.786 337.659 591.439C337.213 587.347 337.745 583.207 339.211 579.361C340.696 575.776 343.481 572.757 345.933 569.658C346.581 568.826 347.462 568.204 348.463 567.872C349.465 567.54 350.542 567.513 351.559 567.793C352.576 568.074 353.488 568.65 354.178 569.448C354.868 570.246 355.306 571.232 355.436 572.279C355.441 572.324 355.446 572.37 355.451 572.416C355.087 572.621 354.73 572.839 354.381 573.07C353.943 573.363 353.603 573.782 353.407 574.271C353.211 574.76 353.167 575.297 353.281 575.812C353.395 576.326 353.661 576.795 354.046 577.155C354.43 577.516 354.915 577.751 355.436 577.832L355.489 577.84C355.359 579.153 355.13 580.454 354.803 581.732C357.949 593.901 351.158 598.333 341.461 598.532C341.247 598.641 341.038 598.751 340.824 598.856C342.666 604.075 343.821 609.512 344.26 615.029C344.509 618.284 344.494 621.554 344.216 624.807L344.233 624.691C344.935 621.074 346.864 617.811 349.694 615.452C353.896 611.998 359.833 610.727 364.367 607.951C364.849 607.642 365.409 607.477 365.981 607.475C366.554 607.474 367.115 607.636 367.598 607.943C368.082 608.25 368.467 608.689 368.709 609.208C368.951 609.727 369.04 610.305 368.965 610.873L368.946 610.994C368.27 611.269 367.612 611.586 366.976 611.944C366.612 612.149 366.255 612.367 365.907 612.598C365.468 612.891 365.129 613.309 364.932 613.798C364.736 614.288 364.692 614.825 364.806 615.34C364.92 615.854 365.187 616.322 365.571 616.683C365.956 617.043 366.44 617.279 366.961 617.359L367.014 617.368C367.053 617.373 367.086 617.379 367.124 617.384C365.969 620.142 364.349 622.681 362.333 624.889C360.366 635.511 351.919 636.519 342.883 633.426H342.877C341.886 637.736 340.449 641.93 338.591 645.943H323.279C323.224 645.773 323.174 645.597 323.125 645.427C324.542 645.516 325.965 645.431 327.362 645.174C326.226 643.78 325.09 642.374 323.954 640.98C323.928 640.954 323.904 640.926 323.882 640.898C323.306 640.184 322.724 639.476 322.148 638.762L322.148 638.761C322.117 636.574 322.368 634.391 322.895 632.267Z" fill="#F2F2F2"/>
<path d="M151.631 645.988C151.631 646.121 151.657 646.253 151.708 646.376C151.758 646.499 151.833 646.611 151.927 646.705C152.021 646.799 152.132 646.873 152.255 646.924C152.378 646.975 152.51 647 152.643 647H367.87C368.138 647 368.395 646.893 368.585 646.704C368.774 646.514 368.881 646.257 368.881 645.988C368.881 645.72 368.774 645.463 368.585 645.273C368.395 645.084 368.138 644.977 367.87 644.977H152.643C152.51 644.977 152.378 645.003 152.255 645.053C152.132 645.104 152.021 645.178 151.927 645.272C151.833 645.366 151.758 645.478 151.708 645.601C151.657 645.724 151.631 645.856 151.631 645.988Z" fill="#CCCCCC"/>
<path d="M43.2816 87.1519C42.2182 102.871 42.7291 120.711 54.9274 132.373C57.7855 135.13 61.1987 137.246 64.9393 138.58C66.4895 139.126 67.1563 136.663 65.6169 136.121C59.3506 133.911 54.4207 129.055 51.136 123.378C47.2854 116.722 45.8162 109.045 45.4946 101.435C45.3452 96.6711 45.4574 91.903 45.8308 87.1519C45.9416 85.5138 43.392 85.5207 43.2816 87.1519Z" fill="#3F3D56"/>
<path d="M62.2834 123.123C65.307 124.528 68.4762 125.958 70.868 128.347C73.0499 130.526 74.5733 133.705 73.6893 136.812C72.239 141.908 65.7798 143.83 61.2763 145.045C60.9607 145.144 60.6959 145.362 60.5376 145.652C60.3794 145.943 60.34 146.283 60.4279 146.602C60.5158 146.921 60.724 147.193 61.0087 147.362C61.2934 147.53 61.6323 147.581 61.954 147.504C66.4842 146.282 71.5639 144.575 74.5231 140.695C78.0247 136.104 76.3624 130.053 72.429 126.309C69.8949 123.896 66.7073 122.379 63.57 120.921C62.0916 120.234 60.7954 122.432 62.2834 123.123Z" fill="#3F3D56"/>
</g>
<defs>
<clipPath id="clip0_30_320">
<rect width="369" height="647" fill="white"/>
</clipPath>
</defs>
</svg>
