<svg width="424" height="533" viewBox="0 0 424 533" fill="none" xmlns="http://www.w3.org/2000/svg">
<g clip-path="url(#clip0_25_146)">
<path d="M86.3738 503.02C85.6337 503.054 84.901 502.859 84.2751 502.463C83.6491 502.067 83.1601 501.488 82.8743 500.804C82.5885 500.121 82.5197 499.366 82.6773 498.642C82.8348 497.918 83.2111 497.26 83.7551 496.757C83.8462 496.395 83.9116 496.135 84.0027 495.773C83.9701 495.694 83.9373 495.615 83.9043 495.537C83.1588 493.776 81.9094 492.274 80.3133 491.221C78.7171 490.168 76.8453 489.609 74.933 489.617C73.0206 489.624 71.153 490.196 69.5647 491.261C67.9764 492.326 66.7383 493.837 66.0058 495.603C63.0784 502.654 59.3514 509.716 58.4337 517.171C58.0295 520.466 58.2 523.806 58.9376 527.043C52.0619 512.045 48.4916 495.744 48.4686 479.244C48.4672 475.104 48.6972 470.967 49.1577 466.852C49.5382 463.479 50.0661 460.13 50.7414 456.805C54.4266 438.763 62.3389 421.853 73.8284 407.464C79.3893 404.429 83.8865 399.763 86.714 394.095C87.7383 392.057 88.4622 389.882 88.8633 387.636C88.236 387.719 87.5984 387.77 86.9711 387.811C86.7757 387.821 86.5701 387.832 86.3746 387.842L86.3009 387.845C85.6115 387.876 84.9278 387.707 84.3322 387.359C83.7366 387.01 83.2544 386.497 82.9438 385.881C82.6331 385.264 82.5072 384.571 82.5812 383.885C82.6552 383.199 82.9259 382.549 83.3608 382.013C83.6317 381.68 83.9027 381.347 84.1739 381.014C84.5853 380.499 85.0069 379.995 85.4182 379.481C85.4657 379.432 85.5103 379.381 85.5519 379.327C86.025 378.741 86.498 378.165 86.9711 377.579C86.1076 376.239 84.9462 375.116 83.5775 374.298C78.8366 371.522 72.2962 373.445 68.8716 377.733C65.4369 382.021 64.789 388.037 65.9818 393.395C67.155 397.954 69.0955 402.28 71.7203 406.188C71.4631 406.517 71.1957 406.836 70.9387 407.165C66.2389 413.208 62.1428 419.698 58.7089 426.54C59.544 418.875 58.5473 411.121 55.8009 403.916C53.0175 397.201 47.8003 391.546 43.2059 385.741C37.6874 378.768 26.3711 381.811 25.3988 390.65C25.3894 390.736 25.3802 390.821 25.3713 390.907C26.0537 391.292 26.7217 391.7 27.3753 392.132C28.1963 392.681 28.8325 393.465 29.2005 394.381C29.5685 395.298 29.6511 396.304 29.4375 397.268C29.2239 398.232 28.7241 399.109 28.0035 399.784C27.2829 400.459 26.3752 400.901 25.3992 401.051L25.2993 401.067C25.5424 403.526 25.9721 405.964 26.5848 408.358C28.3599 415.042 31.4968 421.288 35.7988 426.703C40.1007 432.118 45.475 436.586 51.5846 439.827C51.9857 440.032 52.3765 440.238 52.7776 440.433C49.3276 450.21 47.1636 460.394 46.3399 470.729C45.8736 476.827 45.9011 482.952 46.4222 489.045L46.3913 488.829C45.0749 482.054 41.4606 475.94 36.1589 471.521C28.2845 465.053 17.1595 462.671 8.66447 457.471C7.76164 456.892 6.71187 456.582 5.63898 456.58C4.5661 456.577 3.51487 456.881 2.60923 457.456C1.70359 458.032 0.981326 458.854 0.527656 459.826C0.0739856 460.798 -0.0921844 461.88 0.0487434 462.944C0.0601368 463.019 0.0717363 463.095 0.083503 463.171C1.34986 463.686 2.58286 464.281 3.77534 464.95C4.45775 465.335 5.12575 465.743 5.77933 466.176C6.60041 466.724 7.23662 467.508 7.60462 468.424C7.97262 469.341 8.05524 470.347 7.84165 471.311C7.62806 472.275 7.12823 473.152 6.40763 473.827C5.68703 474.502 4.77927 474.944 3.80332 475.095L3.70332 475.11C3.63131 475.12 3.56963 475.131 3.49775 475.141C5.6615 480.307 8.69841 485.063 12.4754 489.199C17.1413 494.206 22.7807 498.206 29.0478 500.956C35.3148 503.706 42.0775 505.147 48.9212 505.19H48.9315C50.7892 513.263 53.4809 521.121 56.9631 528.637H85.6548C85.7577 528.318 85.8502 527.989 85.9428 527.671C83.287 527.837 80.6208 527.679 78.0036 527.198C80.1324 524.585 82.2611 521.953 84.3899 519.341C84.4374 519.292 84.482 519.24 84.5236 519.186C85.6034 517.85 86.6935 516.523 87.7732 515.186L87.7738 515.184C87.8314 511.086 87.3611 506.998 86.3747 503.02L86.3738 503.02Z" fill="#F2F2F2"/>
<path d="M337.49 503.02C338.23 503.054 338.962 502.859 339.588 502.463C340.214 502.067 340.703 501.488 340.989 500.804C341.275 500.121 341.344 499.366 341.186 498.642C341.028 497.918 340.652 497.26 340.108 496.757C340.017 496.395 339.952 496.135 339.861 495.773C339.893 495.694 339.926 495.615 339.959 495.537C340.705 493.776 341.954 492.274 343.55 491.221C345.146 490.168 347.018 489.609 348.93 489.617C350.843 489.624 352.71 490.196 354.299 491.261C355.887 492.326 357.125 493.837 357.857 495.603C360.785 502.654 364.512 509.716 365.43 517.171C365.834 520.466 365.663 523.806 364.926 527.043C371.801 512.045 375.372 495.744 375.395 479.244C375.396 475.104 375.166 470.967 374.706 466.852C374.325 463.479 373.797 460.13 373.122 456.805C369.437 438.763 361.524 421.853 350.035 407.464C344.474 404.429 339.977 399.763 337.149 394.095C336.125 392.057 335.401 389.882 335 387.636C335.627 387.719 336.265 387.77 336.892 387.811C337.088 387.821 337.293 387.832 337.489 387.842L337.562 387.845C338.252 387.876 338.935 387.707 339.531 387.359C340.127 387.01 340.609 386.497 340.919 385.881C341.23 385.264 341.356 384.571 341.282 383.885C341.208 383.199 340.937 382.549 340.502 382.013C340.232 381.68 339.961 381.347 339.689 381.014C339.278 380.499 338.856 379.995 338.445 379.481C338.398 379.432 338.353 379.381 338.311 379.327C337.838 378.741 337.365 378.165 336.892 377.579C337.756 376.239 338.917 375.116 340.286 374.298C345.027 371.522 351.567 373.445 354.992 377.733C358.426 382.021 359.074 388.037 357.881 393.395C356.708 397.954 354.768 402.28 352.143 406.188C352.4 406.517 352.668 406.836 352.925 407.165C357.624 413.208 361.721 419.698 365.154 426.54C364.319 418.875 365.316 411.121 368.062 403.916C370.846 397.201 376.063 391.546 380.657 385.741C386.176 378.768 397.492 381.811 398.465 390.65C398.474 390.736 398.483 390.821 398.492 390.907C397.81 391.292 397.142 391.7 396.488 392.132C395.667 392.681 395.031 393.465 394.663 394.381C394.295 395.298 394.212 396.304 394.426 397.268C394.639 398.232 395.139 399.109 395.86 399.784C396.58 400.459 397.488 400.901 398.464 401.051L398.564 401.067C398.321 403.526 397.891 405.964 397.279 408.358C395.503 415.042 392.367 421.288 388.065 426.703C383.763 432.118 378.388 436.586 372.279 439.827C371.878 440.032 371.487 440.238 371.086 440.433C374.536 450.21 376.7 460.394 377.523 470.729C377.99 476.827 377.962 482.952 377.441 489.045L377.472 488.829C378.788 482.054 382.403 475.94 387.704 471.521C395.579 465.053 406.704 462.671 415.199 457.471C416.102 456.892 417.151 456.582 418.224 456.58C419.297 456.577 420.349 456.881 421.254 457.456C422.16 458.032 422.882 458.854 423.336 459.826C423.789 460.798 423.956 461.88 423.815 462.944C423.803 463.019 423.792 463.095 423.78 463.171C422.513 463.686 421.28 464.281 420.088 464.95C419.406 465.335 418.738 465.743 418.084 466.176C417.263 466.724 416.627 467.508 416.259 468.424C415.891 469.341 415.808 470.347 416.022 471.311C416.235 472.275 416.735 473.152 417.456 473.827C418.176 474.502 419.084 474.944 420.06 475.095L420.16 475.11C420.232 475.12 420.294 475.131 420.366 475.141C418.202 480.307 415.165 485.063 411.388 489.199C406.722 494.206 401.083 498.206 394.816 500.956C388.548 503.706 381.786 505.147 374.942 505.19H374.932C373.074 513.263 370.382 521.121 366.9 528.637H338.208C338.106 528.318 338.013 527.989 337.92 527.671C340.576 527.837 343.242 527.679 345.86 527.198C343.731 524.585 341.602 521.953 339.473 519.341C339.426 519.292 339.381 519.24 339.34 519.186C338.26 517.85 337.17 516.523 336.09 515.186L336.089 515.184C336.032 511.086 336.503 506.998 337.49 503.02Z" fill="#F2F2F2"/>
<path d="M95.525 514.522L103.913 518.096L121.692 487.445L109.312 482.17L95.525 514.522Z" fill="#A0616A"/>
<path d="M164.839 522.46L173.956 522.459L178.294 487.291L164.837 487.292L164.839 522.46Z" fill="#A0616A"/>
<path d="M164.518 531.971L192.555 531.97V531.615C192.555 528.721 191.405 525.945 189.359 523.899C187.312 521.852 184.537 520.702 181.642 520.702L176.52 516.817L166.965 520.703L164.517 520.703L164.518 531.971Z" fill="#2F2E41"/>
<path d="M90.4252 520.611L116.218 531.602L116.357 531.276C117.492 528.614 117.522 525.61 116.442 522.925C115.362 520.24 113.259 518.094 110.597 516.959L107.408 511.376L97.0941 511.205L94.8425 510.245L90.4252 520.611Z" fill="#2F2E41"/>
<path d="M173.783 314.325L187.639 398.699L183.868 411.272L188.817 420.177L181.55 498.381L184.499 504.875L176.258 509.958H159.487L158.597 439.16L154.455 428.765V423.036L146.021 379.865L145.122 433.478L142.43 438.671L118.31 501.809H99.505L100.959 490.605C97.5902 488.899 106.018 483.913 106.828 480.225L104.059 473.995L106.828 462.226L113.206 429.497L106.689 390.691L109.023 365.713L107.808 357.169L107.9 354.405C107.9 354.405 111.115 353.165 108.045 350.07C103.795 325.979 109.023 320.75 109.023 320.75L129.948 308.504L173.783 314.325Z" fill="#2F2E41"/>
<path d="M140.038 203.209C150.534 203.209 159.042 194.7 159.042 184.204C159.042 173.709 150.534 165.2 140.038 165.2C129.542 165.2 121.034 173.709 121.034 184.204C121.034 194.7 129.542 203.209 140.038 203.209Z" fill="#A0616A"/>
<path d="M116.212 147.749C116.301 148.839 116.151 149.935 115.771 150.96C115.391 151.985 114.791 152.915 114.013 153.683C113.235 154.451 112.299 155.039 111.269 155.406C110.239 155.773 109.141 155.91 108.053 155.807L97.0106 179.98L89.6827 168.275L101.292 147.114C101.586 145.297 102.537 143.651 103.964 142.488C105.391 141.325 107.195 140.726 109.034 140.805C110.873 140.883 112.619 141.633 113.942 142.913C115.265 144.193 116.073 145.914 116.212 147.749Z" fill="#A0616A"/>
<path d="M175.028 316.141C175.068 316.426 175.038 316.717 174.941 316.988C174.844 317.258 174.683 317.502 174.472 317.697C174.261 317.893 174.006 318.034 173.728 318.11C173.451 318.185 173.159 318.193 172.878 318.132C162.928 315.982 121.868 321.141 108.268 335.002C108.011 335.267 107.678 335.446 107.315 335.515C106.952 335.584 106.577 335.54 106.24 335.388C105.903 335.236 105.622 334.984 105.433 334.666C105.245 334.348 105.16 333.98 105.188 333.612C105.428 330.632 109.758 317.152 109.758 317.152L111.078 308.752C111.108 308.556 111.108 308.357 111.078 308.162L109.868 301.212C109.803 300.848 109.628 300.513 109.368 300.252L108.958 299.842C108.622 299.504 108.433 299.048 108.433 298.572C108.433 298.095 108.622 297.639 108.958 297.302L110.548 295.722C110.741 295.524 110.887 295.286 110.975 295.025C111.063 294.763 111.092 294.485 111.058 294.212L108.948 278.612C108.938 278.582 108.938 278.542 108.928 278.512L99.6081 229.292C99.5359 228.903 99.5937 228.501 99.7727 228.149C99.9516 227.796 100.242 227.513 100.598 227.342L116.438 219.772C116.603 219.695 116.754 219.594 116.888 219.472L127.948 209.212C128.278 208.913 128.704 208.742 129.148 208.732L149.028 208.582C149.304 208.581 149.576 208.645 149.824 208.766C150.072 208.887 150.289 209.064 150.458 209.282L156.508 217.152C156.723 217.429 157.015 217.638 157.348 217.752L161.448 219.141L173.288 223.161L173.838 223.351C174.178 223.469 174.475 223.687 174.689 223.976C174.903 224.265 175.025 224.612 175.038 224.971C175.046 225.024 175.05 225.078 175.048 225.131L172.088 286.391C172.079 286.662 172.127 286.931 172.228 287.181L173.648 290.491C173.79 290.827 173.826 291.198 173.753 291.555C173.68 291.912 173.5 292.238 173.238 292.491C172.818 292.891 172.338 293.351 172.038 293.691C171.428 294.361 172.728 299.671 172.928 300.441C172.946 300.507 172.96 300.574 172.968 300.641L173.698 306.131C173.741 306.454 173.694 306.782 173.564 307.08C173.433 307.377 173.224 307.634 172.958 307.821C172.756 307.966 172.586 308.15 172.459 308.364C172.332 308.577 172.251 308.815 172.221 309.061C172.191 309.307 172.213 309.557 172.285 309.795C172.356 310.033 172.477 310.253 172.638 310.441L174.238 312.331C174.456 312.599 174.598 312.92 174.648 313.261L175.028 316.141Z" fill="#86CCC2"/>
<path d="M135.176 202.278C135.095 202.099 135.014 201.92 134.933 201.74C134.964 201.741 134.995 201.745 135.026 201.746L135.176 202.278Z" fill="#2F2E41"/>
<path d="M202.841 309.89C202.934 308.8 202.786 307.704 202.409 306.678C202.032 305.652 201.434 304.721 200.658 303.95C199.882 303.18 198.947 302.589 197.918 302.22C196.889 301.85 195.792 301.711 194.703 301.811L183.723 277.609L176.365 289.296L187.92 310.487C188.21 312.304 189.156 313.953 190.58 315.119C192.004 316.286 193.806 316.889 195.646 316.816C197.485 316.742 199.233 315.996 200.559 314.72C201.886 313.443 202.697 311.725 202.841 309.89Z" fill="#A0616A"/>
<path d="M187.958 284.482L187.348 285.621L180.918 297.641L180.018 299.321L173.738 290.671L153.128 262.291L156.058 244.491L161.448 222.191L169.438 221.731L175.038 224.021C177.423 225.075 179.38 226.908 180.586 229.22C181.793 231.532 182.178 234.185 181.678 236.744L176.718 262.141L187.958 284.482Z" fill="#86CCC2"/>
<path d="M156.583 167.104C156.299 165.526 155.663 164.031 154.723 162.731C154.249 162.169 153.662 161.712 153 161.391C152.338 161.071 151.616 160.893 150.88 160.871C150.145 160.849 149.413 160.982 148.733 161.262C148.052 161.541 147.439 161.962 146.932 162.495C147.229 161.631 147.315 160.709 147.184 159.805C145.796 160.47 144.311 160.912 142.785 161.113L146.157 157.592L129.37 159.134C127.638 159.293 125.764 159.519 124.492 160.835C123.22 162.151 123.149 164.96 124.757 165.694C121.589 164.501 117.95 166.233 115.86 169.135C113.769 172.037 112.999 175.865 112.858 179.578C112.675 184.393 113.572 189.52 116.512 193.065C118.434 195.383 121.054 196.829 123.181 198.914L123.245 198.977C125.575 201.367 128.495 203.097 131.71 203.992C134.924 204.888 138.319 204.917 141.548 204.076C141.911 203.976 142.271 203.865 142.633 203.762C144.442 204.58 146.695 203.462 147.837 201.643C149.054 199.703 149.295 197.221 149.346 194.856C149.414 191.764 149.223 188.672 148.777 185.611C148.273 182.165 147.82 177.751 150.549 176.02C152.674 174.673 155.314 176.003 157.454 177.322C157.659 173.892 157.366 170.45 156.583 167.104Z" fill="#2F2E41"/>
<path d="M116.06 255.081L103.397 254.167L81.4198 227.26L65.1061 203.877L68.8633 194.371L86.622 168.929L86.4381 166.731L88.4034 166.377L88.4381 163.731L90.0692 163.991L94.4381 157.731L104.438 165.731L98.7827 182.345L98.4381 185.731L96.4816 189.104L97.4381 193.731L93.6985 197.28L91.8979 202.57C99.6659 207.678 107.033 215.321 114.215 224.887L116.06 255.081Z" fill="#86CCC2"/>
<path d="M288.635 284.344L287.262 297.074L288.07 313.768L251.094 309.375L247.619 284.344L252.046 284.387L288.635 284.344Z" fill="#FFB6B6"/>
<path d="M256.439 242.504L265.226 237.233L269.438 230.732L282.438 232.732L298.33 243.384L298.174 267.545L288.321 292.604L247.025 287.333L245.456 278.494C245.456 278.494 234.034 263.152 246.335 254.366L256.439 242.504Z" fill="white"/>
<path d="M203.705 170.761C203.288 171.649 203.072 172.617 203.07 173.598C203.068 174.578 203.282 175.547 203.695 176.437C204.108 177.326 204.711 178.113 205.462 178.744C206.213 179.375 207.093 179.834 208.04 180.088L236.646 234.064L248.193 225.152L216.443 174.897C216.764 173.278 216.48 171.597 215.645 170.173C214.81 168.749 213.481 167.681 211.911 167.172C210.341 166.662 208.638 166.746 207.126 167.407C205.613 168.069 204.396 169.262 203.705 170.761Z" fill="#FFB6B6"/>
<path d="M250.63 252.303C250.63 252.303 247.979 254.654 244.21 248.162C241.192 242.965 226.14 219.693 224.009 211.625C222.84 211.658 221.693 211.302 220.749 210.611C219.805 209.92 219.118 208.935 218.796 207.811L234.963 201.536C238.478 203.293 237.502 205.729 236.611 206.989L242.632 216.021L262.661 238.497L252.577 250.637L250.63 252.303Z" fill="white"/>
<path d="M307.814 515.476H299.73L295.882 484.294H307.814V515.476Z" fill="#FFB6B6"/>
<path d="M312.081 529.483H306.283L305.248 524.009L302.598 529.483H287.222C286.485 529.483 285.767 529.247 285.173 528.81C284.579 528.373 284.141 527.758 283.922 527.055C283.702 526.351 283.714 525.596 283.954 524.899C284.194 524.202 284.651 523.6 285.258 523.182L297.537 514.701V509.168L310.452 509.939L312.081 529.483Z" fill="#2F2E41"/>
<path d="M262.404 515.476H254.32L250.472 484.294H262.404V515.476Z" fill="#FFB6B6"/>
<path d="M266.671 529.483H260.873L259.838 524.009L257.188 529.483H241.812C241.075 529.483 240.357 529.247 239.763 528.81C239.17 528.373 238.731 527.758 238.512 527.055C238.292 526.351 238.304 525.596 238.544 524.899C238.784 524.202 239.241 523.6 239.848 523.182L252.127 514.701V509.168L265.042 509.939L266.671 529.483Z" fill="#2F2E41"/>
<path d="M311.302 488.586H311.214L309.659 437.886C310.665 435.945 311.176 433.785 311.145 431.6C311.115 429.414 310.545 427.269 309.485 425.357L309.263 424.954L309.84 422.279C310.581 418.842 310.241 415.26 308.866 412.023L307.415 364.729C312.597 331.147 287.902 309.246 287.902 309.246H250.909L248.266 318.329L245.438 320.731L246.509 324.366L243.438 328.731L242.967 336.533C237.717 387.685 238.67 437.532 247.001 485.825L246.774 485.939C246.343 486.18 246.022 486.577 245.876 487.048C245.73 487.519 245.771 488.028 245.99 488.47C246.375 489.585 247.35 490.261 248.168 489.978L267.705 489.299C268.136 489.059 268.457 488.662 268.603 488.191C268.749 487.719 268.708 487.21 268.489 486.768C268.104 485.653 267.128 484.978 266.311 485.26L264.982 485.932L267.815 437.008L267.501 428.072L268.149 417.934L271.143 372.333L282.478 428.409L294.056 489.15C293.737 489.439 293.513 489.819 293.413 490.238C293.314 490.657 293.344 491.096 293.5 491.498C293.655 491.9 293.929 492.245 294.285 492.488C294.641 492.731 295.062 492.86 295.493 492.859H311.302C311.868 492.859 312.412 492.634 312.812 492.233C313.213 491.832 313.438 491.289 313.438 490.722C313.438 490.156 313.213 489.612 312.812 489.212C312.412 488.811 311.868 488.586 311.302 488.586Z" fill="#2F2E41"/>
<path d="M351.815 330.107C352.206 329.208 352.394 328.234 352.367 327.253C352.34 326.273 352.099 325.311 351.66 324.434C351.22 323.557 350.594 322.788 349.826 322.179C349.057 321.57 348.164 321.138 347.21 320.911L317.04 267.793L305.758 277.038L338.962 326.345C338.688 327.973 339.021 329.644 339.897 331.043C340.774 332.442 342.133 333.471 343.717 333.935C345.302 334.399 347.001 334.265 348.494 333.56C349.986 332.854 351.168 331.626 351.815 330.107Z" fill="#FFB6B6"/>
<path d="M295.815 243.347C295.815 243.347 298.396 240.919 302.353 247.298C305.522 252.405 327.961 281.851 330.327 289.853C331.495 289.786 332.651 290.109 333.615 290.772C334.579 291.435 335.294 292.399 335.65 293.514L319.672 300.258C316.108 298.604 314.447 295.51 315.301 294.225L309.019 285.372L285.466 258.18L293.918 245.068L295.815 243.347Z" fill="white"/>
<path d="M263.12 195.668C257.741 206.27 261.255 218.551 271.236 225.009C282.03 231.992 296.044 230.463 300.577 216.892C305.625 201.78 301.478 195.296 292.461 187.551C281.893 178.474 268.932 184.212 263.12 195.668Z" fill="#2F2E41"/>
<path d="M289.599 219.286C286.86 222.874 282.81 225.227 278.337 225.83C273.864 226.433 269.335 225.236 265.744 222.502C262.153 219.768 259.794 215.72 259.186 211.248C258.578 206.776 259.769 202.245 262.499 198.651L262.647 198.457C265.436 194.965 269.487 192.71 273.924 192.177C278.362 191.645 282.831 192.878 286.367 195.611C289.903 198.344 292.224 202.358 292.828 206.786C293.431 211.215 292.27 215.703 289.595 219.283L289.599 219.286Z" fill="#FFB6B6"/>
<path d="M257.907 193.951C260.675 196.585 264.048 198.496 267.73 199.517C268.468 198.663 269.343 197.938 270.319 197.372C269.852 198.344 269.532 199.38 269.369 200.446C271.011 203.853 277.718 206.303 284.127 208.808L292.617 193.825L281.38 187.458C272.35 181.215 261.721 183.879 257.907 193.951Z" fill="#2F2E41"/>
<path d="M299.021 187.57C299.841 187.268 300.723 187.176 301.587 187.302C302.451 187.428 303.27 187.769 303.969 188.292C305.337 189.332 306.443 190.678 307.199 192.221C308.574 194.718 309.561 197.41 310.128 200.203C310.613 202.62 310.531 205.542 308.362 206.803C306.553 207.855 303.966 207.192 302.303 205.788C300.762 204.315 299.593 202.496 298.892 200.482C298.204 198.483 297.183 196.615 295.871 194.956L297.37 195.655C296.896 194.218 296.675 192.709 296.717 191.196C296.752 190.443 296.982 189.712 297.386 189.076C297.791 188.44 298.354 187.921 299.021 187.57Z" fill="#2F2E41"/>
<path d="M279.585 189.533L291.641 196.365C293.255 197.279 294.673 198.503 295.815 199.966C296.956 201.428 297.798 203.102 298.292 204.89C298.787 206.678 298.925 208.546 298.697 210.387C298.47 212.228 297.882 214.007 296.968 215.621C294.277 220.369 289.913 223.943 284.728 225.644C279.542 227.346 273.909 227.053 268.928 224.823L279.945 215.098L265 222.712L261.809 220.904C277.837 217.99 280.929 205.418 279.585 189.533Z" fill="#2F2E41"/>
<path d="M163.162 0L123.5 66.033L163.297 89.529L163.162 0Z" fill="#8C8C8C"/>
<path d="M202.998 66.033L163.162 0L163.297 89.529L202.998 66.033Z" fill="#333333"/>
<path d="M123.5 66.033L163.249 47.916L163.297 89.529L123.5 66.033Z" fill="#383838"/>
<path d="M202.998 68.033L163.249 49.916L163.335 90.008L202.998 68.033Z" fill="#141414"/>
<path d="M202.901 73.595L163.2 97.091V129.5L202.901 73.595Z" fill="#333333"/>
<path d="M123.498 81.595L163.2 105.091V137.5L123.498 81.595Z" fill="#8C8C8C"/>
</g>
<defs>
<clipPath id="clip0_25_146">
<rect width="423.876" height="532.804" fill="white"/>
</clipPath>
</defs>
</svg>
